#!OML:ASF H:\LiuWeirdWalks\Patient Classification 1\Patient 1\Session 1\male.ASF
:FULLY-SPECIFIED
:DEGREES
642
root -0.297299 17.8716 -13.7893 3.85942 7.35625 -1.93993
lowerback 11.646 -1.96669 -11.2482
upperback 2.29059 -4.03624 -1.9639
thorax -3.46855 -1.89156 4.79951
lowerneck -15.5505 2.82279 7.92102
upperneck 16.8076 2.36405 -2.04907
head 7.89073 1.4312 -1.70956
rclavicle -4.49253e-014 -5.24792e-014
rhumerus -30.5551 -25.348 -4.76656
rradius 36.6746
rwrist -9.42438
rhand -20.0294 -5.15431
rfingers 7.12502
rthumb 6.31147 -35.0403
lclavicle -4.49253e-014 -5.24792e-014
lhumerus -22.9237 27.9835 24.0085
lradius 30.9931
lwrist 0.337834
lhand -15.14 4.59407
lfingers 7.12502
lthumb 11.0297 34.2843
rfemur -27.3273 -4.53948 22.617
rtibia 37.4028
rfoot -6.94476 -14.27
rtoes -1.47827
lfemur 4.28309 -6.25471 -13.4301
ltibia 23.4365
lfoot -10.3622 16.7738
ltoes -18.9933
643
root -0.342414 17.8781 -13.6998 3.84966 7.44965 -2.30138
lowerback 11.6351 -1.98957 -11.1369
upperback 2.27509 -4.05192 -1.94427
thorax -3.4831 -1.89897 4.76073
lowerneck -15.5435 2.81001 7.876
upperneck 16.9048 2.32826 -1.89885
head 7.91817 1.42789 -1.65651
rclavicle 6.91771e-014 1.11319e-014
rhumerus -30.5174 -25.2272 -4.73587
rradius 36.7475
rwrist -9.45364
rhand -19.9877 -5.09907
rfingers 7.12502
rthumb 6.3517 -34.9838
lclavicle 6.91771e-014 1.11319e-014
lhumerus -22.7609 27.8647 24.3517
lradius 31.0432
lwrist 0.423557
lhand -15.1697 4.57523
lfingers 7.12502
lthumb 11.0011 34.267
rfemur -26.9563 -4.56588 23.195
rtibia 37.2365
rfoot -7.22089 -14.3031
rtoes -1.44856
lfemur 4.21156 -6.52408 -12.834
ltibia 23.9847
lfoot -10.0268 16.558
ltoes -19.4852
644
root -0.385123 17.8842 -13.6104 3.83907 7.51747 -2.65232
lowerback 11.6031 -2.00363 -11.0131
upperback 2.26378 -4.05136 -1.92417
thorax -3.48503 -1.89944 4.71222
lowerneck -15.5294 2.80479 7.85434
upperneck 16.9527 2.30784 -1.79932
head 7.92954 1.42758 -1.62232
rclavicle 5.1684e-015 -2.70347e-014
rhumerus -30.4752 -25.1549 -4.6572
rradius 36.8125
rwrist -9.4905
rhand -19.9667 -5.05612
rfingers 7.12502
rthumb 6.372 -34.9403
lclavicle 5.1684e-015 -2.70347e-014
lhumerus -22.588 27.7802 24.722
lradius 31.1017
lwrist 0.511083
lhand -15.1993 4.53724
lfingers 7.12502
lthumb 10.9725 34.2305
rfemur -26.5803 -4.59231 23.7554
rtibia 37.0573
rfoot -7.49772 -14.3249
rtoes -1.39618
lfemur 4.14116 -6.7355 -12.258
ltibia 24.5407
lfoot -9.67372 16.3392
ltoes -19.9695
645
root -0.426025 17.8898 -13.5209 3.82074 7.5618 -2.99224
lowerback 11.5581 -2.00848 -10.8802
upperback 2.25634 -4.0358 -1.9088
thorax -3.47897 -1.89324 4.65099
lowerneck -15.4618 2.80032 7.85409
upperneck 16.9612 2.29374 -1.72771
head 7.91926 1.42839 -1.60057
rclavicle 6.75868e-015 -1.27222e-014
rhumerus -30.435 -25.115 -4.54407
rradius 36.8799
rwrist -9.52792
rhand -19.9618 -5.05659
rfingers 7.12502
rthumb 6.37669 -34.9406
lclavicle 6.75868e-015 -1.27222e-014
lhumerus -22.4086 27.7359 25.1052
lradius 31.165
lwrist 0.577428
lhand -15.2366 4.44149
lfingers 7.12502
lthumb 10.9366 34.1366
rfemur -26.1906 -4.60677 24.2986
rtibia 36.8688
rfoot -7.77977 -14.3505
rtoes -1.31414
lfemur 4.07316 -6.88873 -11.701
ltibia 25.1173
lfoot -9.31745 16.1171
ltoes -20.3921
646
root -0.465098 17.8954 -13.4312 3.80326 7.59515 -3.29908
lowerback 11.5139 -2.01332 -10.7557
upperback 2.24024 -4.02273 -1.90548
thorax -3.4824 -1.88736 4.58231
lowerneck -15.4157 2.8129 7.90033
upperneck 16.9928 2.29722 -1.69323
head 7.92248 1.43725 -1.59658
rclavicle -3.85642e-014 -3.81667e-014
rhumerus -30.3844 -25.0435 -4.42909
rradius 36.9713
rwrist -9.61781
rhand -20.0058 -5.12605
rfingers 7.12502
rthumb 6.33422 -35.0113
lclavicle -3.85642e-014 -3.81667e-014
lhumerus -22.2539 27.701 25.4766
lradius 31.238
lwrist 0.624896
lhand -15.2935 4.30772
lfingers 7.12502
lthumb 10.8816 34.0058
rfemur -25.7922 -4.62022 24.8002
rtibia 36.6732
rfoot -8.06958 -14.3802
rtoes -1.20447
lfemur 3.98391 -6.99544 -11.187
ltibia 25.7299
lfoot -8.9437 15.8907
ltoes -20.749
647
root -0.502629 17.9004 -13.3415 3.78502 7.62248 -3.55825
lowerback 11.4711 -2.01775 -10.6568
upperback 2.22003 -4.0135 -1.91951
thorax -3.48989 -1.88275 4.51013
lowerneck -15.3341 2.82598 7.95354
upperneck 16.9997 2.30372 -1.66181
head 7.91147 1.44736 -1.59466
rclavicle -1.70955e-014 -6.36111e-015
rhumerus -30.3228 -24.9962 -4.3007
rradius 37.0595
rwrist -9.67512
rhand -20.0298 -5.17369
rfingers 7.12502
rthumb 6.31104 -35.0597
lclavicle -1.70955e-014 -6.36111e-015
lhumerus -22.1242 27.6542 25.8313
lradius 31.3223
lwrist 0.667218
lhand -15.353 4.13649
lfingers 7.12502
lthumb 10.8243 33.8376
rfemur -25.3833 -4.62857 25.2432
rtibia 36.4743
rfoot -8.36758 -14.4193
rtoes -1.079
lfemur 3.86492 -7.05564 -10.7303
ltibia 26.3983
lfoot -8.55165 15.6512
ltoes -21.0688
